<?xml version="1.0" standalone="no"?>
<!DOCTYPE svg PUBLIC "-//W3C//DTD SVG 20010904//EN"
 "http://www.w3.org/TR/2001/REC-SVG-20010904/DTD/svg10.dtd">
<svg version="1.0" xmlns="http://www.w3.org/2000/svg"
 width="219.000000pt" height="219.000000pt" viewBox="0 0 219.000000 219.000000"
 preserveAspectRatio="xMidYMid meet">
<metadata>
Created by potrace 1.14, written by Peter Selinger 2001-2017
</metadata>
<g transform="translate(0.000000,219.000000) scale(0.100000,-0.100000)"
fill="#000000" stroke="none">
<path d="M1678 2167 l-68 -20 0 -85 c0 -76 2 -83 18 -77 90 39 184 51 248 33
20 -5 48 -21 61 -35 22 -21 25 -31 20 -69 -8 -77 -53 -105 -172 -107 -51 -1
-65 -5 -66 -17 -3 -48 0 -122 5 -128 4 -3 41 -7 84 -8 79 -1 154 -25 182 -59
21 -26 24 -98 5 -138 -39 -83 -193 -105 -337 -49 l-74 28 1 -78 c0 -90 -1 -88
95 -119 159 -50 359 -14 441 78 49 56 63 98 63 190 0 76 -2 86 -30 125 -16 24
-53 57 -82 74 l-51 31 40 33 c135 108 91 317 -81 393 -64 29 -212 31 -302 4z"/>
<path d="M9 1767 c-1 -1 -2 -399 -3 -885 l-1 -883 380 2 c209 0 403 5 430 9
99 16 116 21 173 42 193 71 287 207 296 428 8 187 -73 335 -236 433 l-58 34
61 54 c110 99 147 220 119 388 -26 153 -105 258 -242 320 -110 50 -181 57
-567 58 -193 1 -352 0 -352 0z m751 -197 c166 -39 225 -116 225 -290 0 -113
-23 -172 -83 -213 -82 -57 -103 -60 -417 -61 l-289 -1 -1 280 c0 154 1 285 2
290 5 16 494 12 563 -5z m93 -764 c92 -22 178 -81 211 -145 15 -28 35 -133 31
-163 -1 -7 -5 -38 -9 -68 -8 -66 -54 -146 -101 -179 -37 -25 -127 -56 -192
-64 -34 -5 -406 -10 -563 -8 l-35 1 2 307 c0 170 2 314 2 321 1 11 57 13 314
9 171 -2 324 -7 340 -11z"/>
</g>
</svg>
